<svg xmlns="http://www.w3.org/2000/svg" viewBox="0 0 64 64" fill="none">
  <!-- Building -->
  <rect x="10" y="24" width="44" height="32" rx="3" fill="#FFF3E0" stroke="#f7931a" stroke-width="2.5" stroke-linecap="round" stroke-linejoin="round"/>
  <!-- Awning -->
  <path d="M8 24 L56 24 L54 16 L10 16 Z" fill="#f7931a" opacity="0.15" stroke="#f7931a" stroke-width="2.5" stroke-linecap="round" stroke-linejoin="round"/>
  <!-- Awning scallops -->
  <path d="M8 24 C12 28 18 28 22 24 C26 28 30 28 34 24 C38 28 42 28 46 24 C50 28 54 28 56 24" stroke="#f7931a" stroke-width="2.5" stroke-linecap="round" stroke-linejoin="round" fill="none"/>
  <!-- Door -->
  <rect x="26" y="40" width="12" height="16" rx="2" fill="#f7931a" opacity="0.2" stroke="#f7931a" stroke-width="2"/>
  <!-- Windows -->
  <rect x="14" y="32" width="8" height="8" rx="1.5" stroke="#f7931a" stroke-width="2" stroke-linecap="round"/>
  <rect x="42" y="32" width="8" height="8" rx="1.5" stroke="#f7931a" stroke-width="2" stroke-linecap="round"/>
  <!-- Bitcoin accepted sign -->
  <circle cx="48" cy="12" r="5" fill="#f7931a" opacity="0.9"/>
  <line x1="47" y1="9" x2="47" y2="15" stroke="white" stroke-width="1.2" stroke-linecap="round"/>
  <line x1="49.5" y1="9" x2="49.5" y2="15" stroke="white" stroke-width="1.2" stroke-linecap="round"/>
  <path d="M46 10.5 L49 10.5 C50 10.5 50 12 49 12 L46 12" stroke="white" stroke-width="1.2" stroke-linecap="round" stroke-linejoin="round"/>
  <path d="M46 12 L49 12 C50.2 12 50.2 13.5 49 13.5 L46 13.5" stroke="white" stroke-width="1.2" stroke-linecap="round" stroke-linejoin="round"/>
  <!-- Palm tree accent -->
  <path d="M6 56 C6 48 5 44 4 40" stroke="#22c55e" stroke-width="2" stroke-linecap="round" opacity="0.6"/>
  <path d="M4 40 C2 37 0 36 -1 37" stroke="#22c55e" stroke-width="2" stroke-linecap="round" opacity="0.4"/>
  <path d="M4 40 C3 36 4 34 6 32" stroke="#22c55e" stroke-width="2" stroke-linecap="round" opacity="0.4"/>
</svg>